HIERARCHY
ROOT Hips
{
	OFFSET 0.000000 0.000000 0.000000 
	CHANNELS 6 Xposition Yposition Zposition Yrotation Zrotation Xrotation 
	JOINT Lumbar
	{
		OFFSET 0.000000 0.000000 0.000000 
		CHANNELS 3 Zrotation Xrotation Yrotation
		JOINT Neck
		{
			OFFSET 0.000000 0.445665 0.000000 
			CHANNELS 3 Zrotation Xrotation Yrotation
			End Site
			{
				OFFSET 0.000000 0.227535 0.000000 
			}
		}
		JOINT RightShoulder
		{
			OFFSET 0.019635 0.377685 0.194865 
			CHANNELS 3 Zrotation Xrotation Yrotation
			JOINT RightElbow
			{
				OFFSET 0.000000 -0.243375 0.000000 
				CHANNELS 2 Zrotation Yrotation
				JOINT RightWrist
				{
					OFFSET 0.000000 -0.264825 0.000000 
					CHANNELS 2 Zrotation Xrotation
					End Site
					{
						OFFSET 0.006600 -0.176220 0.000990 
					}
				}
			}
		}
		JOINT LeftShoulder
		{
			OFFSET 0.019635 0.377685 -0.194865 
			CHANNELS 3 Zrotation Xrotation Yrotation
			JOINT LeftElbow
			{
				OFFSET 0.000000 -0.243375 0.000000 
				CHANNELS 2 Zrotation Yrotation
				JOINT LeftWrist
				{
					OFFSET 0.000000 -0.264825 0.000000 
					CHANNELS 2 Zrotation Xrotation
					End Site
					{
						OFFSET 0.006600 -0.176220 -0.000990 
					}
				}
			}
		}
	}
	JOINT RightHip
	{
		OFFSET 0.052140 -0.069960 0.075570 
		CHANNELS 3 Zrotation Xrotation Yrotation
		JOINT RightKnee
		{
			OFFSET 0.000000 -0.402270 0.000000 
			CHANNELS 1 Zrotation
			JOINT RightAnkle
			{
				OFFSET 0.000000 -0.404085 0.000000 
				CHANNELS 3 Zrotation Xrotation Yrotation
				End Site
				{
					OFFSET 0.204105 -0.089430 0.008415 
				}
			}
		}
	}
	JOINT LeftHip
	{
		OFFSET 0.052140 -0.069960 -0.075570 
		CHANNELS 3 Zrotation Xrotation Yrotation
		JOINT LeftKnee
		{
			OFFSET 0.000000 -0.402270 0.000000 
			CHANNELS 1 Zrotation
			JOINT LeftAnkle
			{
				OFFSET 0.000000 -0.404085 0.000000 
				CHANNELS 3 Zrotation Xrotation Yrotation
				End Site
				{
					OFFSET 0.204105 -0.089430 -0.008415 
				}
			}
		}
	}
}
MOTION
Frames: 26
Frame Time: 0.02
0 0.95578 -0 183.88182 0 -3.93363 1.91112 4.23334 0.10055 -41.16272 3.12004 3.16282 4.1873 -71.10443 -90.01115 16.38316 56.70132 -28.15171 -0.10698 39.6745 68.03767 67.94772 15.90471 -92.94759 -26.4281 5.21538 -1.5351 7.75985 -4.28141 -7.56852 -0.36873 -4.54186 -9.86954 -1.84646 2.76655 0.46466 -6.25101 4.74299 5.53084 8.66074
-0.00063 0.95578 0.00076 183.94719 0 -3.95824 2.00363 4.2069 -0.06753 -41.46309 3.21105 3.21322 3.53948 -71.17738 -90.0113 16.16065 55.79672 -28.25442 -0.08019 39.44426 67.8152 68.36506 15.92215 -92.69959 -26.25671 5.19316 -1.62038 7.75298 -4.39589 -7.48886 -0.40586 -4.53514 -9.85355 -1.94386 2.75113 0.40283 -6.12799 4.71376 5.52928 8.68066
-0.00127 0.95577 0.00152 184.01221 0 -3.98275 2.09629 4.18042 -0.23494 -41.76257 3.30142 3.26329 2.89549 -71.24954 -90.01102 15.93973 54.89562 -28.35715 -0.05328 39.21609 67.59396 68.77976 15.93962 -92.45226 -26.08624 5.17092 -1.70533 7.74609 -4.50974 -7.40982 -0.4426 -4.52851 -9.83772 -2.04078 2.73572 0.34132 -6.00595 4.68494 5.5279 8.70055
-0.00191 0.95576 0.00227 184.077 0 -4.007 2.1899 4.15361 -0.40159 -42.06116 3.39032 3.31255 2.25943 -71.3195 -90.00868 15.72279 53.99855 -28.46149 -0.02525 38.99388 67.37537 69.18789 15.95725 -92.20562 -25.91774 5.14775 -1.78995 7.73912 -4.62283 -7.33192 -0.47838 -4.52206 -9.82204 -2.13639 2.72022 0.27993 -5.88697 4.65735 5.52735 8.72055
-0.00253 0.95576 0.00304 184.14366 0 -4.03252 2.27781 4.12865 -0.57259 -42.36415 3.48725 3.36615 1.58009 -71.40139 -90.01684 15.48452 53.07877 -28.55792 -0.00271 38.73999 67.14257 69.63072 15.97386 -91.95581 -25.73873 5.12874 -1.87655 7.73261 -4.74071 -7.24731 -0.51954 -4.51452 -9.80516 -2.23851 2.70523 0.2173 -5.75216 4.62309 5.52258 8.74
-0.0032 0.95574 0.00378 184.20587 0 -4.05539 2.37812 4.09973 -0.73402 -42.65773 3.56694 3.41049 0.99381 -71.45777 -90.00305 15.29177 52.20887 -28.67056 0.03112 38.55342 66.94016 69.99981 15.99272 -91.71266 -25.5822 5.10148 -1.95869 7.72515 -4.84782 -7.17744 -0.54908 -4.5094 -9.79112 -2.32706 2.68916 0.15777 -5.65073 4.60308 5.52661 8.76057
-0.00405 0.9557 0.00442 184.26079 0 -4.07081 2.51321 4.05928 -0.87432 -42.93078 3.60082 3.42965 0.65062 -71.4445 -89.92379 15.22241 51.44946 -28.83652 0.10069 38.55377 66.81823 70.16726 16.01775 -91.4842 -25.48505 5.04503 -2.03186 7.71467 -4.93161 -7.14375 -0.54773 -4.51011 -9.7825 -2.37659 2.6695 0.10182 -5.64417 4.62248 5.55715 8.78516
-0.00497 0.95564 0.00503 184.31039 0 -4.08361 2.66084 4.01489 -1.00414 -43.19348 3.61702 3.4394 0.40359 -71.40534 -89.82321 15.19926 50.74448 -29.01746 0.18086 38.62177 66.72745 70.26006 16.04508 -91.26296 -25.41096 4.9812 -2.10001 7.7033 -5.0035 -7.12566 -0.53444 -4.51339 -9.77713 -2.41269 2.64883 0.04981 -5.67088 4.65627 5.59626 8.81077
-0.00585 0.95559 0.00565 184.35918 0 -4.09772 2.80263 3.97262 -1.13549 -43.45785 3.64014 3.45321 0.12115 -71.37746 -89.73536 15.1565 50.03148 -29.18618 0.2533 38.65836 66.62451 70.38592 16.07141 -91.04043 -25.32794 4.92505 -2.16832 7.69257 -5.07667 -7.10344 -0.52576 -4.51611 -9.77191 -2.45606 2.62899 -0.00073 -5.68053 4.68345 5.62999 8.83531
-0.00675 0.95554 0.0063 184.42144 0 -4.11132 2.94516 3.92896 -1.28047 -43.7355 3.66786 3.46793 -0.19636 -71.35153 -89.63448 15.10828 49.24841 -29.37772 0.3381 38.69832 66.51321 70.51545 16.09754 -90.80925 -25.23841 4.8513 -2.24544 7.68083 -5.16697 -7.06904 -0.52042 -4.51641 -9.76004 -2.49474 2.60757 -0.06477 -5.69808 4.71091 5.66974 8.86232
-0.00763 0.95548 0.00689 184.45459 0 -4.12535 3.0889 3.88726 -1.39456 -43.98238 3.68191 3.47852 -0.41783 -71.31551 -89.55593 15.08193 48.62377 -29.52531 0.39958 38.74665 66.42668 70.61954 16.12465 -90.59815 -25.16791 4.81163 -2.30318 7.67102 -5.2191 -7.06333 -0.50541 -4.52215 -9.76252 -2.53972 2.58923 -0.10006 -5.70744 4.74124 5.69928 8.88456
-0.00844 0.95541 0.00733 184.40696 0 -4.14127 3.23497 3.85194 -1.42611 -44.15234 3.66178 3.4801 -0.39908 -71.25684 -89.54219 15.10891 48.42787 -29.54755 0.39501 38.80704 66.40126 70.67249 16.15355 -90.43773 -25.14437 4.87498 -2.30729 7.66633 -5.16584 -7.13642 -0.46546 -4.54412 -9.80622 -2.60786 2.57932 -0.05443 -5.68304 4.77572 5.69611 8.89201
-0.00922 0.95534 0.00772 184.33057 0 -4.15768 3.38138 3.81875 -1.42689 -44.2905 3.62863 3.47778 -0.28662 -71.18898 -89.552 15.15567 48.3896 -29.52503 0.36654 38.87235 66.39971 70.7023 16.18336 -90.29784 -25.13912 4.9716 -2.29231 7.66369 -5.07512 -7.23722 -0.41641 -4.57115 -9.86379 -2.68235 2.5726 0.01955 -5.64977 4.81261 5.68279 8.89483
-0.01002 0.95527 0.00813 184.26843 0 -4.17385 3.52636 3.78457 -1.44165 -44.43981 3.60201 3.47727 -0.21633 -71.1262 -89.55246 15.19045 48.27495 -29.52329 0.34825 38.93198 66.38687 70.74209 16.213 -90.15052 -25.12551 5.04824 -2.28698 7.6604 -5.00348 -7.32312 -0.37231 -4.59458 -9.91341 -2.75232 2.56463 0.07884 -5.62257 4.84857 5.67579 8.90074
-0.01084 0.9552 0.00856 184.20104 0 -4.19008 3.67741 3.75027 -1.45614 -44.60333 3.57231 3.4765 -0.14502 -71.05923 -89.5467 15.23891 48.17834 -29.5205 0.33276 39.00911 66.3766 70.78137 16.24186 -89.99541 -25.1131 5.14492 -2.27746 7.65591 -4.92277 -7.41929 -0.32435 -4.62342 -9.97009 -2.82874 2.55577 0.14574 -5.5881 4.88442 5.66207 8.90278
-0.01159 0.95513 0.00893 184.13793 0 -4.20626 3.81541 3.71684 -1.46393 -44.72905 3.54598 3.47517 -0.05412 -70.99845 -89.55949 15.26364 48.08576 -29.5087 0.3062 39.04931 66.36674 70.81743 16.27232 -89.86135 -25.10201 5.20814 -2.27209 7.65438 -4.85217 -7.50042 -0.28243 -4.64237 -10.01535 -2.8934 2.54954 0.20366 -5.56603 4.92079 5.6596 8.91145
-0.01213 0.95507 0.00915 184.09289 0 -4.22286 3.91995 3.68497 -1.46155 -44.7648 3.53389 3.47594 0.06104 -70.96316 -89.62023 15.21202 47.92298 -29.48611 0.24974 38.99274 66.34764 70.84843 16.30868 -89.78058 -25.0924 5.16841 -2.28359 7.66089 -4.81911 -7.53332 -0.25941 -4.63107 -10.0254 -2.92418 2.54985 0.22823 -5.58193 4.95873 5.69249 8.9423
-0.01259 0.95501 0.00932 184.05336 0 -4.23929 4.01076 3.654 -1.4534 -44.76239 3.52539 3.47585 0.19324 -70.93345 -89.69846 15.13669 47.76591 -29.45537 0.18377 38.89736 66.32878 70.87767 16.34623 -89.72074 -25.08322 5.09444 -2.29981 7.67027 -4.79755 -7.54999 -0.24286 -4.60994 -10.02349 -2.94293 2.55269 0.24298 -5.61014 4.99689 5.73667 8.97949
-0.01308 0.95494 0.0095 184.0118 0 -4.25536 4.1061 3.62285 -1.44739 -44.77316 3.51416 3.47442 0.32199 -70.89719 -89.76716 15.07592 47.63478 -29.42615 0.12559 38.81509 66.31264 70.90931 16.38216 -89.65047 -25.07192 5.03765 -2.3134 7.67809 -4.77035 -7.57399 -0.22337 -4.59446 -10.02724 -2.96718 2.55432 0.26333 -5.63155 5.03444 5.77446 9.01194
-0.01361 0.95488 0.00971 183.96708 0 -4.2733 4.20883 3.59075 -1.44227 -44.80044 3.5071 3.48006 0.43694 -70.87724 -89.84335 15 47.39127 -29.40438 0.05232 38.75184 66.2855 70.93343 16.42289 -89.58262 -25.06834 4.9748 -2.32833 7.68702 -4.74325 -7.59927 -0.20343 -4.57428 -10.0306 -2.99155 2.55631 0.28015 -5.65784 5.07433 5.81726 9.05196
-0.01404 0.95482 0.00986 183.93083 0 -4.28729 4.29272 3.56088 -1.43445 -44.78464 3.49239 3.47096 0.58221 -70.82512 -89.90777 14.94961 47.37793 -29.36599 0.00808 38.6401 66.2809 70.97302 16.45363 -89.51713 -25.04989 4.91646 -2.34189 7.69433 -4.71957 -7.61751 -0.18622 -4.56135 -10.03169 -3.01268 2.55812 0.30128 -5.67692 5.10925 5.85238 9.07792
-0.01424 0.95478 0.00991 183.91494 0 -4.2905 4.32926 3.53632 -1.41967 -44.65978 3.45582 3.42032 0.8169 -70.68029 -89.9355 14.97624 48.02487 -29.28184 0.05031 38.40035 66.33927 71.05659 16.45894 -89.42913 -24.97809 4.87479 -2.35032 7.69623 -4.69909 -7.62148 -0.17396 -4.57204 -10.02995 -3.0282 2.55865 0.33943 -5.67366 5.13138 5.86392 9.06251
-0.01434 0.95474 0.0099 183.90782 0 -4.28973 4.34705 3.51407 -1.4027 -44.49303 3.41154 3.35514 1.07909 -70.50357 -89.95063 15.02908 48.89722 -29.18179 0.12149 38.11384 66.41994 71.15567 16.45379 -89.34669 -24.89321 4.83935 -2.35733 7.69645 -4.68241 -7.61858 -0.16448 -4.59013 -10.02617 -3.04073 2.55893 0.38162 -5.66267 5.14831 5.86733 9.03294
-0.01448 0.9547 0.00992 183.89795 0 -4.29073 4.37254 3.49114 -1.38751 -44.34513 3.3707 3.29725 1.32189 -70.34295 -89.97135 15.0694 49.64885 -29.0905 0.1769 37.85104 66.48986 71.24731 16.45173 -89.27784 -24.82255 4.80374 -2.36524 7.69759 -4.66649 -7.61786 -0.15444 -4.60402 -10.02289 -3.05438 2.5594 0.42 -5.6548 5.16696 5.87425 9.01054
-0.01463 0.95465 0.00995 183.88312 0 -4.29189 4.40102 3.46666 -1.36885 -44.19625 3.32998 3.23626 1.59489 -70.17509 -89.99326 15.11169 50.47935 -28.99255 0.24288 37.57635 66.56281 71.34084 16.45639 -89.14353 -24.71811 4.75613 -2.37231 7.69816 -4.64069 -7.62049 -0.14162 -4.62109 -10.02097 -3.06875 2.55961 0.46629 -5.64887 5.18836 5.8823 8.98528
-0.01473 0.95462 0.00994 183.88056 0 -4.29177 4.41898 3.44595 -1.35689 -44.04047 3.28746 3.17854 1.81074 -70.01546 -90.00947 15.15615 51.19725 -28.90465 0.29401 37.316 66.63424 71.43373 16.445 -89.14429 -24.67953 4.73492 -2.38063 7.69948 -4.63592 -7.61482 -0.13517 -4.63344 -10.01595 -3.08091 2.56029 0.49729 -5.6371 5.20279 5.88596 8.96251
